<?xml version="1.0" encoding="UTF-8" standalone="no"?>
<!-- Created with Inkscape (http://www.inkscape.org/) -->

<svg
   width="79.999992mm"
   height="80mm"
   viewBox="0 0 79.999992 80"
   version="1.1"
   id="svg5"
   xmlns="http://www.w3.org/2000/svg"
   xmlns:svg="http://www.w3.org/2000/svg">
  <defs
     id="defs2" />
  <g
     id="layer1"
     transform="translate(-65.000002,-108.5)">
    <path
       style="fill:#b2b2b2;fill-opacity:1;stroke:#f0f0f0;stroke-width:2.26881;stroke-linecap:square;stroke-linejoin:round;stroke-miterlimit:3;stroke-opacity:1"
       id="rect878"
       width="77.731186"
       height="77.731194"
       x="66.134407"
       y="109.63441"
       d="m 79.363574,109.63441 h 51.272856 a 13.229167,13.229167 45 0 1 13.22916,13.22916 v 51.27286 A 13.229167,13.229167 135 0 1 130.63643,187.3656 H 79.363574 A 13.229167,13.229167 45 0 1 66.134407,174.13643 v -51.27286 a 13.229167,13.229167 135 0 1 13.229167,-13.22916 z" />
    <g
       id="g13708"
       transform="translate(0,-6.879167)">
      <ellipse
         style="fill:#000000;fill-opacity:1;stroke:none;stroke-width:0.529167;stroke-linecap:square;stroke-linejoin:round;stroke-miterlimit:3;stroke-opacity:1"
         id="path6457"
         cx="116.41378"
         cy="167.82866"
         rx="1.6725671"
         ry="1.6884964" />
      <g
         id="g10399"
         transform="translate(0.06002085,0.553312)">
        <path
           style="fill:none;fill-opacity:1;stroke:#000000;stroke-width:3.129;stroke-linecap:square;stroke-linejoin:round;stroke-miterlimit:3;stroke-dasharray:none;stroke-opacity:1"
           id="rect8189"
           width="34.879524"
           height="15.642062"
           x="98.913994"
           y="156.80852"
           d="m 102.88274,156.80852 h 26.94203 a 3.96875,3.96875 45 0 1 3.96875,3.96875 v 7.70456 a 3.96875,3.96875 135 0 1 -3.96875,3.96875 h -26.94203 a 3.96875,3.96875 45 0 1 -3.968746,-3.96875 v -7.70456 a 3.96875,3.96875 135 0 1 3.968746,-3.96875 z" />
        <path
           id="path10036"
           style="fill:none;stroke:#000000;stroke-width:3.129;stroke-linecap:butt;stroke-linejoin:miter;stroke-miterlimit:4;stroke-dasharray:none;stroke-opacity:1"
           d="m 83.095586,141.82391 0.291082,28.00211 a 2.7030224,2.7030224 45.017006 0 0 2.673176,2.67476 l 8.950792,0.0984 m 26.942924,-30.63676 0.0225,9.07851 m 7.6109,-1.75717 -25.12768,-25.22211 a 2.6408752,2.6408752 0.05372496 0 0 -3.73826,-0.004 l -25.092811,25.09282" />
      </g>
    </g>
    <text
       xml:space="preserve"
       style="font-style:normal;font-weight:normal;font-size:10.5833px;line-height:0.45;font-family:sans-serif;letter-spacing:0px;fill:#000000;fill-opacity:1;stroke:none;stroke-width:0.264583"
       x="104.48065"
       y="180.7059"
       id="text11354"><tspan
         id="tspan11352"
         style="text-align:center;text-anchor:middle;stroke-width:0.264583"
         x="104.48065"
         y="180.7059"
         dx="0">Homeserver</tspan></text>
  </g>
</svg>
